<?xml version="1.0" encoding="UTF-8"?>
<svg xmlns="http://www.w3.org/2000/svg" xmlns:xlink="http://www.w3.org/1999/xlink" width="289pt" height="360pt" viewBox="0 0 289 360" version="1.1">
<g id="surface397">
<path style="fill:none;stroke-width:0.4;stroke-linecap:butt;stroke-linejoin:round;stroke:rgb(0%,0%,0%);stroke-opacity:1;stroke-miterlimit:10;" d="M 64.000856 575.999592 L 64.000856 559.998922 L 79.998918 559.998922 L 79.998918 575.999592 Z M 64.000856 575.999592 " transform="matrix(1.497496,0,0,-1.497496,-95.540234,1126.416361)"/>
<path style="fill:none;stroke-width:0.4;stroke-linecap:butt;stroke-linejoin:round;stroke:rgb(0%,0%,0%);stroke-opacity:1;stroke-miterlimit:10;" d="M 79.998918 559.998922 L 79.998918 544.00086 L 95.999589 544.00086 L 95.999589 559.998922 Z M 79.998918 559.998922 " transform="matrix(1.497496,0,0,-1.497496,-95.540234,1126.416361)"/>
<path style="fill:none;stroke-width:0.4;stroke-linecap:butt;stroke-linejoin:round;stroke:rgb(0%,0%,0%);stroke-opacity:1;stroke-miterlimit:10;" d="M 112.00026 528.000189 L 112.00026 511.999518 L 128.00093 511.999518 L 128.00093 528.000189 Z M 112.00026 528.000189 " transform="matrix(1.497496,0,0,-1.497496,-95.540234,1126.416361)"/>
<path style="fill:none;stroke-width:0.4;stroke-linecap:butt;stroke-linejoin:round;stroke:rgb(0%,0%,0%);stroke-opacity:1;stroke-miterlimit:10;" d="M 128.00093 639.999666 L 128.00093 623.998996 L 143.998992 623.998996 L 143.998992 639.999666 Z M 128.00093 639.999666 " transform="matrix(1.497496,0,0,-1.497496,-95.540234,1126.416361)"/>
<path style="fill:none;stroke-width:0.4;stroke-linecap:butt;stroke-linejoin:round;stroke:rgb(0%,0%,0%);stroke-opacity:1;stroke-miterlimit:10;" d="M 143.998992 623.998996 L 143.998992 608.000934 L 159.999663 608.000934 L 159.999663 623.998996 Z M 143.998992 623.998996 " transform="matrix(1.497496,0,0,-1.497496,-95.540234,1126.416361)"/>
<path style="fill:none;stroke-width:0.4;stroke-linecap:butt;stroke-linejoin:round;stroke:rgb(0%,0%,0%);stroke-opacity:1;stroke-miterlimit:10;" d="M 159.999663 608.000934 L 159.999663 592.000263 L 176.000334 592.000263 L 176.000334 608.000934 Z M 159.999663 608.000934 " transform="matrix(1.497496,0,0,-1.497496,-95.540234,1126.416361)"/>
<path style="fill:none;stroke-width:0.4;stroke-linecap:butt;stroke-linejoin:round;stroke:rgb(0%,0%,0%);stroke-opacity:1;stroke-miterlimit:10;" d="M 176.000334 592.000263 L 176.000334 575.999592 L 192.001004 575.999592 L 192.001004 592.000263 Z M 176.000334 592.000263 " transform="matrix(1.497496,0,0,-1.497496,-95.540234,1126.416361)"/>
<path style="fill:none;stroke-width:0.4;stroke-linecap:butt;stroke-linejoin:round;stroke:rgb(0%,0%,0%);stroke-opacity:1;stroke-miterlimit:10;" d="M 223.999737 656.000337 L 223.999737 639.999666 L 240.000408 639.999666 L 240.000408 656.000337 Z M 223.999737 656.000337 " transform="matrix(1.497496,0,0,-1.497496,-95.540234,1126.416361)"/>
<path style="fill:none;stroke-width:0.4;stroke-linecap:butt;stroke-linejoin:round;stroke:rgb(0%,0%,0%);stroke-opacity:1;stroke-dasharray:1,3;stroke-miterlimit:10;" d="M 64.000856 559.998922 L 256.001078 751.999144 " transform="matrix(1.497496,0,0,-1.497496,-95.540234,1126.416361)"/>
<path style="fill:none;stroke-width:0.4;stroke-linecap:butt;stroke-linejoin:round;stroke:rgb(0%,0%,0%);stroke-opacity:1;stroke-dasharray:1,3;stroke-miterlimit:10;" d="M 64.000856 544.00086 L 256.001078 736.001082 " transform="matrix(1.497496,0,0,-1.497496,-95.540234,1126.416361)"/>
<path style="fill:none;stroke-width:0.4;stroke-linecap:butt;stroke-linejoin:round;stroke:rgb(0%,0%,0%);stroke-opacity:1;stroke-dasharray:1,3;stroke-miterlimit:10;" d="M 64.000856 528.000189 L 256.001078 720.000411 " transform="matrix(1.497496,0,0,-1.497496,-95.540234,1126.416361)"/>
<path style="fill:none;stroke-width:0.4;stroke-linecap:butt;stroke-linejoin:round;stroke:rgb(0%,0%,0%);stroke-opacity:1;stroke-dasharray:1,3;stroke-miterlimit:10;" d="M 64.000856 511.999518 L 256.001078 703.99974 " transform="matrix(1.497496,0,0,-1.497496,-95.540234,1126.416361)"/>
<path style="fill:none;stroke-width:0.4;stroke-linecap:butt;stroke-linejoin:round;stroke:rgb(0%,0%,0%);stroke-opacity:1;stroke-dasharray:1,3;stroke-miterlimit:10;" d="M 79.998918 511.999518 L 256.001078 687.99907 " transform="matrix(1.497496,0,0,-1.497496,-95.540234,1126.416361)"/>
<path style="fill:none;stroke-width:0.4;stroke-linecap:butt;stroke-linejoin:round;stroke:rgb(0%,0%,0%);stroke-opacity:1;stroke-dasharray:1,3;stroke-miterlimit:10;" d="M 95.999589 511.999518 L 256.001078 672.001008 " transform="matrix(1.497496,0,0,-1.497496,-95.540234,1126.416361)"/>
<path style="fill:none;stroke-width:0.4;stroke-linecap:butt;stroke-linejoin:round;stroke:rgb(0%,0%,0%);stroke-opacity:1;stroke-dasharray:1,3;stroke-miterlimit:10;" d="M 112.00026 511.999518 L 256.001078 656.000337 " transform="matrix(1.497496,0,0,-1.497496,-95.540234,1126.416361)"/>
</g>
</svg>
